<svg width="133" height="28" viewBox="0 0 133 28" fill="none" xmlns="http://www.w3.org/2000/svg">
<path d="M0.196 27V3.2H4.616V27H0.196ZM20.9474 8.64C22.3981 8.64 23.6901 8.92333 24.8234 9.49C25.9794 10.0567 26.8861 10.9293 27.5434 12.108C28.2008 13.264 28.5294 14.76 28.5294 16.596V27H24.2794V17.14C24.2794 15.5307 23.8941 14.3293 23.1234 13.536C22.3754 12.7427 21.3214 12.346 19.9614 12.346C18.9641 12.346 18.0801 12.55 17.3094 12.958C16.5388 13.366 15.9381 13.978 15.5074 14.794C15.0994 15.5873 14.8954 16.596 14.8954 17.82V27H10.6454V8.844H14.6914V13.74L13.9774 12.244C14.6121 11.088 15.5301 10.204 16.7314 9.592C17.9554 8.95733 19.3608 8.64 20.9474 8.64ZM40.7548 27.238C38.7601 27.238 37.2188 26.728 36.1308 25.708C35.0428 24.6653 34.4988 23.1353 34.4988 21.118V4.832H38.7488V21.016C38.7488 21.8773 38.9641 22.546 39.3948 23.022C39.8481 23.498 40.4715 23.736 41.2648 23.736C42.2168 23.736 43.0101 23.4867 43.6448 22.988L44.8348 26.014C44.3361 26.422 43.7241 26.728 42.9988 26.932C42.2735 27.136 41.5255 27.238 40.7548 27.238ZM31.5068 12.38V8.98H43.6108V12.38H31.5068ZM56.2673 27.238C54.25 27.238 52.482 26.8413 50.9633 26.048C49.4673 25.232 48.3 24.1213 47.4613 22.716C46.6453 21.3107 46.2373 19.7127 46.2373 17.922C46.2373 16.1087 46.634 14.5107 47.4273 13.128C48.2433 11.7227 49.354 10.6233 50.7593 9.83C52.1873 9.03667 53.808 8.64 55.6213 8.64C57.3893 8.64 58.9646 9.02533 60.3473 9.796C61.73 10.5667 62.818 11.6547 63.6113 13.06C64.4046 14.4653 64.8013 16.12 64.8013 18.024C64.8013 18.2053 64.79 18.4093 64.7673 18.636C64.7673 18.8627 64.756 19.078 64.7333 19.282H49.6033V16.46H62.4893L60.8233 17.344C60.846 16.3013 60.6306 15.3833 60.1773 14.59C59.724 13.7967 59.1006 13.1733 58.3073 12.72C57.5366 12.2667 56.6413 12.04 55.6213 12.04C54.5786 12.04 53.6606 12.2667 52.8673 12.72C52.0966 13.1733 51.4846 13.808 51.0313 14.624C50.6006 15.4173 50.3853 16.358 50.3853 17.446V18.126C50.3853 19.214 50.6346 20.1773 51.1333 21.016C51.632 21.8547 52.3346 22.5007 53.2413 22.954C54.148 23.4073 55.1906 23.634 56.3693 23.634C57.3893 23.634 58.3073 23.4753 59.1233 23.158C59.9393 22.8407 60.6646 22.342 61.2993 21.662L63.5773 24.28C62.7613 25.232 61.73 25.9687 60.4833 26.49C59.2593 26.9887 57.854 27.238 56.2673 27.238ZM68.8837 27V8.844H72.9297V13.842L72.4537 12.38C72.9977 11.156 73.8477 10.2267 75.0037 9.592C76.1824 8.95733 77.6444 8.64 79.3897 8.64V12.686C79.2084 12.6407 79.0384 12.618 78.8797 12.618C78.721 12.5953 78.5624 12.584 78.4037 12.584C76.7944 12.584 75.5137 13.06 74.5617 14.012C73.6097 14.9413 73.1337 16.3353 73.1337 18.194V27H68.8837ZM82.995 27V8.844H87.245V27H82.995ZM85.137 5.852C84.3437 5.852 83.6864 5.60267 83.165 5.104C82.6664 4.60533 82.417 4.00467 82.417 3.302C82.417 2.57667 82.6664 1.976 83.165 1.5C83.6864 1.00133 84.3437 0.751999 85.137 0.751999C85.9304 0.751999 86.5764 0.989999 87.075 1.466C87.5964 1.91933 87.857 2.49733 87.857 3.2C87.857 3.948 87.6077 4.58266 87.109 5.104C86.6104 5.60267 85.953 5.852 85.137 5.852ZM100.983 27.238C99.1245 27.238 97.4698 26.8413 96.0192 26.048C94.5685 25.232 93.4238 24.1213 92.5852 22.716C91.7465 21.3107 91.3272 19.7127 91.3272 17.922C91.3272 16.1087 91.7465 14.5107 92.5852 13.128C93.4238 11.7227 94.5685 10.6233 96.0192 9.83C97.4698 9.03667 99.1245 8.64 100.983 8.64C102.864 8.64 104.53 9.03667 105.981 9.83C107.454 10.6233 108.599 11.7113 109.415 13.094C110.254 14.4767 110.673 16.086 110.673 17.922C110.673 19.7127 110.254 21.3107 109.415 22.716C108.599 24.1213 107.454 25.232 105.981 26.048C104.53 26.8413 102.864 27.238 100.983 27.238ZM100.983 23.6C102.026 23.6 102.955 23.3733 103.771 22.92C104.587 22.4667 105.222 21.8093 105.675 20.948C106.151 20.0867 106.389 19.078 106.389 17.922C106.389 16.7433 106.151 15.7347 105.675 14.896C105.222 14.0347 104.587 13.3773 103.771 12.924C102.955 12.4707 102.037 12.244 101.017 12.244C99.9745 12.244 99.0452 12.4707 98.2292 12.924C97.4358 13.3773 96.8012 14.0347 96.3252 14.896C95.8492 15.7347 95.6112 16.7433 95.6112 17.922C95.6112 19.078 95.8492 20.0867 96.3252 20.948C96.8012 21.8093 97.4358 22.4667 98.2292 22.92C99.0452 23.3733 99.9632 23.6 100.983 23.6ZM114.737 27V8.844H118.783V13.842L118.307 12.38C118.851 11.156 119.701 10.2267 120.857 9.592C122.036 8.95733 123.498 8.64 125.243 8.64V12.686C125.062 12.6407 124.892 12.618 124.733 12.618C124.575 12.5953 124.416 12.584 124.257 12.584C122.648 12.584 121.367 13.06 120.415 14.012C119.463 14.9413 118.987 16.3353 118.987 18.194V27H114.737ZM130.043 27.238C129.272 27.238 128.615 26.9773 128.071 26.456C127.527 25.912 127.255 25.232 127.255 24.416C127.255 23.5547 127.527 22.8747 128.071 22.376C128.615 21.8547 129.272 21.594 130.043 21.594C130.813 21.594 131.471 21.8547 132.015 22.376C132.559 22.8747 132.831 23.5547 132.831 24.416C132.831 25.232 132.559 25.912 132.015 26.456C131.471 26.9773 130.813 27.238 130.043 27.238Z" fill="white"/>
</svg>
